<svg xmlns="http://www.w3.org/2000/svg" width="118" height="71" viewBox="0 0 118 71">
    <g fill="none" fill-rule="nonzero">
        <path fill="#2A80B8" d="M71.681 33.745s-1.319-3.177-1.319-6.618c0-1.511 1.054-5.151 3.167-4.763 1.886.346 2.375 3.44 1.04 6.538-1.194 2.775-2.888 4.843-2.888 4.843m40.378-7.941c-1.138 4.627-.793 13.763-12.814 19.669-2.088 1.026-4.66 1.475-7.644 1.535-2.87.058-6.177-.453-8.17-1.344-5.943-2.657-8.846-6.223-9.375-7.685 5.542-6.88 6.136-11.853 5.014-15.35-1.23-3.842-4.773-5.862-8.445-3.441-5.045 3.328-4.982 11.158-2.197 17.214.181.393.374.798.58 1.21a31.148 31.148 0 0 0 2.145 3.698c3.401 4.989 11.35 10.166 19.793 10.166 16.626 0 24.807-12.968 26.8-24.084.737-4.118-4.777-5.293-5.687-1.588M100.2 18c-.498 0-.928-.032-1.27-.072-1.09-.127-1.88-1.167-1.76-2.324.121-1.159 1.099-1.993 2.193-1.868.658.077 2.367.163 3.979-.687 1.05-.553 1.644-1.277 1.958-1.788.599-.974 1.83-1.25 2.75-.613.92.636 1.179 1.943.578 2.917a9.075 9.075 0 0 1-3.516 3.259C103.32 17.769 101.528 18 100.2 18M89.929 13.792c-.093 1.788-1.827 3.172-3.874 3.092-2.048-.08-3.634-1.595-3.54-3.383.09-1.788 1.824-3.172 3.872-3.093 2.048.081 3.633 1.595 3.542 3.384"/>
        <path fill="#FFF" d="M10.938 63.653c-2.191-.51-4.474-1.087-4.474-4.215 0-2.506 1.768-4.37 4.408-4.37 2.147 0 3.69 1.353 4.54 3.261l-1.41.776c-.671-1.552-1.81-2.462-3.13-2.462-1.388 0-2.819.954-2.819 2.795 0 1.908 1.654 2.351 3.377 2.773 2.192.51 4.474 1.087 4.474 4.216 0 2.728-2.439 4.369-5.032 4.369-2.372 0-3.915-1.352-4.766-3.261l1.41-.775c.67 1.552 1.811 2.46 3.356 2.46 1.408 0 3.444-.752 3.444-2.793 0-1.908-1.656-2.353-3.378-2.774M29 56h9.964v1.517h-4.189v13.42H33.19v-13.42H29zM57.5 69.074c2.573 0 4.678-2.89 4.678-6.487 0-3.595-2.105-6.508-4.678-6.508s-4.656 2.913-4.656 6.508c0 3.596 2.083 6.487 4.656 6.487m.022-14.565c3.996 0 6.123 3.754 6.123 8.078 0 4.279-2.127 8.057-6.123 8.057-3.998 0-6.167-3.778-6.167-8.057 0-4.324 2.169-8.078 6.167-8.078M86.337 59.923c0-1.85-1.292-3.211-5.053-3.211h-1.361v6.468h1.361c3.761 0 5.053-1.406 5.053-3.257zm-8.03-4.772h3.669c3.76 0 5.977 2.03 5.977 4.772 0 2.185-1.409 3.925-3.854 4.571l4.822 6.021h-2.029l-4.616-5.775h-2.353v5.775h-1.617V55.151zM103 56h8.446v1.517h-6.93v6.287h6.93v1.519h-6.93v4.095h6.93v1.519H103zM69.477 37.038c-1.843 2.276-3.742 4.547-5.878 4.633-1.727.07-2.626-1.55-2.7-3.33-.26-6.36 2.312-13.979 2.281-14.742.195-1.474-2.45-3.469-3.216-3.437l-3.328.134c-.64.025-1.279.051-3.4-.118-.81-2.578-2.633-3.269-4.17-3.207-1.663.067-3.15 1.275-3.079 3.054.076 1.844 1.282 3.133 2.918 3.958.07 3.248.029 8.535-.571 11.108-.02.087-.03.173-.038.26a.998.998 0 0 1-.01.06c-.462 2.82-1.447 6.937-4.007 7.041-1.535.062-2.237-1.44-2.294-2.837l-.429-10.492c-.063-1.526-1.458-2.744-3.57-2.66-.895.037-1.645.513-1.62 1.149.02.445.29.816.341 2.025l.4 9.792c-.63 1.81-1.72 3.382-3.447 3.452-2.238.09-3.725-1.76-3.86-5.067-.375-9.158 5.15-13.52 10.013-13.718.64-.025 1.284.077 1.86.053.64-.026.815-.415.771-1.497-.067-1.653-1.324-2.62-3.051-2.55-7.806.314-14.962 7.101-14.527 17.72.018.451.056.891.11 1.323-.144.138-.28.312-.405.536-.126.07-3.298 3.956-8.736 4.176-7.357.297-10.288-7.1-10.611-14.986C4.8 18.505 10.74 5.46 19.184 5.12c2.943-.12 3.988 1.94 4.048 3.404.222 5.405-2.774 8.23-10.746 9.583-2.136.364-3.456 1.842-3.474 3.349-.023 2.1 1.873 3.363 3.393 3.14 7.18-1.057 16.21-8.264 15.89-16.086-.227-5.533-3.862-8.251-8.47-8.066C7.096.961-.398 16.677.107 29.078.61 41.35 6.434 49.014 15.581 48.644c5.47-.221 9.3-2.92 11.144-4.553 1.354 1.963 3.422 3.136 6.148 3.025 2.43-.099 4.175-1.315 5.395-2.83 1.021 1.489 2.794 2.5 5.033 2.41 5.262-.214 7.617-5.554 8.612-9.73a2.35 2.35 0 0 0 .077-.24c1-3.735 1.158-9.283 1.12-11.765l.704-.028 4.862-.197c-1.823 5.55-2.79 10.113-2.624 14.183.23 5.596 3.88 7.104 6.886 6.983 3.613-.147 6.578-2.467 8.701-5.171a31.041 31.041 0 0 1-2.162-3.693"/>
        <path fill="#F0C311" d="M71.681 33.745s-1.319-3.177-1.319-6.618c0-1.511 1.054-5.151 3.167-4.763 1.886.346 2.375 3.44 1.04 6.538-1.194 2.775-2.888 4.843-2.888 4.843m40.378-7.941c-1.138 4.627-.793 13.763-12.814 19.669-2.088 1.026-4.66 1.475-7.644 1.535-2.87.058-6.177-.453-8.17-1.344-5.943-2.657-8.846-6.223-9.375-7.685 5.542-6.88 6.136-11.853 5.014-15.35-1.23-3.842-4.773-5.862-8.445-3.441-5.045 3.328-4.982 11.158-2.197 17.214.181.393.374.798.58 1.21a31.148 31.148 0 0 0 2.145 3.698c3.401 4.989 11.35 10.166 19.793 10.166 16.626 0 24.807-12.968 26.8-24.084.737-4.118-4.777-5.293-5.687-1.588M100.2 18c-.498 0-.928-.032-1.27-.072-1.09-.127-1.88-1.167-1.76-2.324.121-1.159 1.099-1.993 2.193-1.868.658.077 2.367.163 3.979-.687 1.05-.553 1.644-1.277 1.958-1.788.599-.974 1.83-1.25 2.75-.613.92.636 1.179 1.943.578 2.917a9.075 9.075 0 0 1-3.516 3.259C103.32 17.769 101.528 18 100.2 18M89.929 13.792c-.093 1.788-1.827 3.172-3.874 3.092-2.048-.08-3.634-1.595-3.54-3.383.09-1.788 1.824-3.172 3.872-3.093 2.048.081 3.633 1.595 3.542 3.384"/>
    </g>
</svg>
