<svg xmlns="http://www.w3.org/2000/svg" width="147" height="117" viewBox="0 0 147 117">
    <g fill="#FFF" fill-rule="nonzero">
        <path d="M14.754 66.473s-3.782-9.051-3.782-18.857c0-4.307 3.021-14.678 9.079-13.573 5.405.988 6.808 9.803 2.982 18.632-3.423 7.906-8.279 13.798-8.279 13.798m115.749-22.627c-3.262 13.186-2.272 39.219-36.734 56.047-5.986 2.923-13.357 4.203-21.912 4.375-8.225.165-17.707-1.291-23.42-3.831-17.039-7.57-25.36-17.734-26.875-21.898C37.449 58.932 39.15 44.765 35.934 34.8 32.41 23.85 22.251 18.094 11.725 24.992-2.737 34.476-2.558 56.789 5.427 74.046c.52 1.12 1.073 2.272 1.662 3.449 1.697 3.391 3.707 6.976 6.15 10.535C22.99 102.247 45.776 117 69.98 117c47.661 0 71.113-36.955 76.826-68.629 2.114-11.734-13.694-15.082-16.303-4.525M96.511 20c-1.393 0-2.596-.083-3.553-.187-3.053-.33-5.259-3.032-4.925-6.04.338-3.012 3.075-5.18 6.135-4.855 1.844.2 6.624.423 11.134-1.785 2.937-1.438 4.6-3.32 5.48-4.647 1.675-2.533 5.122-3.25 7.693-1.594 2.575 1.653 3.3 5.05 1.618 7.582-1.632 2.464-4.66 5.933-9.838 8.47C105.242 19.4 100.225 20 96.51 20M66.989 10.404c-.274 4.965-5.413 8.808-11.482 8.587-6.072-.225-10.772-4.429-10.495-9.395.27-4.965 5.41-8.808 11.478-8.587 6.072.225 10.769 4.429 10.499 9.395"/>
    </g>
</svg>
