<svg xmlns="http://www.w3.org/2000/svg" width="26" height="26" viewBox="0 0 26 26">
    <g fill="#FFF" fill-rule="nonzero">
        <path d="M18.125 0H7.691C3.45 0 0 3.45 0 7.69v10.435c0 4.24 3.45 7.691 7.69 7.691h10.435c4.24 0 7.691-3.45 7.691-7.69V7.69c0-4.241-3.45-7.691-7.69-7.691zm5.094 18.125a5.094 5.094 0 0 1-5.094 5.094H7.691a5.094 5.094 0 0 1-5.094-5.094V7.691a5.094 5.094 0 0 1 5.094-5.094h10.434a5.094 5.094 0 0 1 5.094 5.094v10.434z"/>
        <path d="M12.91 6.233a6.684 6.684 0 0 0-6.677 6.677 6.685 6.685 0 0 0 6.677 6.677 6.684 6.684 0 0 0 6.677-6.677 6.684 6.684 0 0 0-6.677-6.677zm0 10.757a4.08 4.08 0 1 1 0-8.16 4.08 4.08 0 0 1 0 8.16z"/>
        <circle cx="19.579" cy="6.155" r="1.6"/>
    </g>
</svg>
