<svg xmlns="http://www.w3.org/2000/svg" width="119" height="119" viewBox="0 0 119 119">
    <g fill="none" fill-rule="nonzero">
        <path fill="#2A80B8" d="M119 59.5c0 32.858-26.552 59.496-59.306 59.496S.39 92.358.39 59.5C.389 26.64 26.94.003 59.694.003 92.448.003 119 26.641 119 59.5"/>
        <path fill="#2A80B8" d="M68.947 56.913s-.97-2.319-.97-4.83c0-1.104.775-3.76 2.328-3.477 1.386.253 1.746 2.51.765 4.772-.878 2.025-2.123 3.535-2.123 3.535m29.685-5.796c-.837 3.377-.583 10.046-9.42 14.356-1.536.749-3.426 1.077-5.62 1.12-2.11.043-4.542-.33-6.007-.98-4.37-1.94-6.504-4.543-6.892-5.61 4.074-5.022 4.51-8.65 3.686-11.204-.904-2.804-3.51-4.278-6.21-2.512-3.708 2.43-3.662 8.145-1.614 12.566.133.286.275.581.426.883.435.869.95 1.787 1.577 2.699 2.5 3.641 8.344 7.42 14.552 7.42 12.223 0 18.238-9.466 19.703-17.58.542-3.005-3.512-3.863-4.181-1.158M89.7 45c-.356 0-.664-.02-.909-.045-.781-.08-1.345-.73-1.26-1.452.086-.725.787-1.246 1.57-1.168.471.048 1.694.102 2.848-.43.752-.345 1.177-.797 1.402-1.117.429-.609 1.31-.781 1.969-.383.658.398.844 1.214.414 1.823-.418.593-1.193 1.427-2.518 2.037-1.282.59-2.566.735-3.516.735M81.75 43.5c-.07 1.18-1.379 2.092-2.924 2.04-1.547-.054-2.744-1.053-2.673-2.232.069-1.179 1.378-2.091 2.923-2.039 1.546.053 2.743 1.052 2.674 2.231"/>
        <path fill="#FFF" d="M24.852 79.586c-1.71-.376-3.49-.8-3.49-3.105 0-1.847 1.379-3.22 3.438-3.22 1.674 0 2.878.997 3.542 2.402l-1.1.572c-.524-1.144-1.413-1.814-2.442-1.814-1.083 0-2.199.703-2.199 2.06 0 1.406 1.29 1.732 2.634 2.043 1.71.376 3.49.8 3.49 3.106 0 2.01-1.902 3.22-3.925 3.22-1.85 0-3.054-.997-3.717-2.403l1.1-.572c.522 1.145 1.412 1.814 2.617 1.814 1.099 0 2.687-.555 2.687-2.059 0-1.406-1.292-1.733-2.635-2.044M38 73h6.975v1.17h-2.932v10.353h-1.11V74.17H38zM59 83.827c2.07 0 3.765-2.076 3.765-4.66 0-2.581-1.695-4.674-3.765-4.674-2.07 0-3.747 2.093-3.747 4.675 0 2.583 1.677 4.66 3.747 4.66m.018-10.463c3.216 0 4.927 2.697 4.927 5.803 0 3.073-1.711 5.787-4.927 5.787-3.218 0-4.963-2.714-4.963-5.787 0-3.106 1.745-5.803 4.963-5.803M79.03 76.692c0-1.387-.873-2.408-3.417-2.408h-.92v4.85h.92c2.544 0 3.418-1.053 3.418-2.442zM73.6 73.114h2.482c2.544 0 4.043 1.522 4.043 3.578 0 1.639-.953 2.944-2.607 3.429l3.262 4.515h-1.373l-3.122-4.33h-1.592v4.33H73.6V73.114zM91 73h5.83v1.17h-4.783v4.85h4.782v1.172h-4.782v3.16h4.782v1.17H91zM66.184 60.574c-1.326 1.647-2.693 3.29-4.23 3.353-1.242.05-1.89-1.123-1.943-2.41-.187-4.603 1.664-10.117 1.642-10.67.14-1.066-1.763-2.51-2.315-2.487l-2.395.097c-.46.019-.92.038-2.447-.085-.583-1.865-1.894-2.365-3-2.321-1.197.049-2.268.923-2.216 2.21.055 1.335.922 2.268 2.1 2.865.05 2.35.02 6.177-.411 8.039a1.487 1.487 0 0 0-.028.188c-.001.014-.004.029-.007.043-.332 2.042-1.041 5.02-2.883 5.096-1.105.045-1.61-1.041-1.651-2.053l-.309-7.593c-.045-1.105-1.05-1.986-2.569-1.925-.644.026-1.183.371-1.165.831.013.322.209.59.245 1.466l.288 7.087c-.454 1.309-1.239 2.447-2.481 2.498-1.61.065-2.68-1.274-2.778-3.667-.27-6.628 3.706-9.786 7.206-9.928.46-.018.924.055 1.339.038.46-.02.586-.3.554-1.084-.048-1.195-.953-1.896-2.196-1.845-5.617.228-10.766 5.14-10.453 12.824.012.327.04.645.079.958-.104.1-.202.225-.292.388-.09.05-2.374 2.863-6.287 3.022-5.294.215-7.404-5.14-7.636-10.846-.304-7.501 3.97-16.941 10.046-17.188 2.118-.086 2.87 1.405 2.913 2.464.16 3.912-1.996 5.956-7.733 6.935-1.537.263-2.487 1.333-2.5 2.424-.016 1.52 1.348 2.433 2.442 2.272 5.167-.765 11.665-5.98 11.435-11.641-.163-4.005-2.78-5.972-6.095-5.838-9.162.373-14.555 11.748-14.19 20.722.361 8.882 4.553 14.428 11.136 14.16 3.936-.16 6.693-2.112 8.019-3.295.975 1.421 2.463 2.27 4.424 2.19 1.75-.072 3.005-.952 3.883-2.048.735 1.077 2.01 1.808 3.622 1.743 3.787-.154 5.482-4.019 6.198-7.04.02-.055.039-.113.055-.175.72-2.703.834-6.718.806-8.514l.507-.02 3.498-.143c-1.311 4.017-2.008 7.319-1.888 10.264.165 4.05 2.792 5.142 4.956 5.054 2.6-.107 4.734-1.785 6.261-3.743a22.495 22.495 0 0 1-1.556-2.672"/>
        <path fill="#F0C311" d="M68.947 56.913s-.97-2.319-.97-4.83c0-1.104.775-3.76 2.328-3.477 1.386.253 1.746 2.51.765 4.772-.878 2.025-2.123 3.535-2.123 3.535m29.685-5.796c-.837 3.377-.583 10.046-9.42 14.356-1.536.749-3.426 1.077-5.62 1.12-2.11.043-4.542-.33-6.007-.98-4.37-1.94-6.504-4.543-6.892-5.61 4.074-5.022 4.51-8.65 3.686-11.204-.904-2.804-3.51-4.278-6.21-2.512-3.708 2.43-3.662 8.145-1.614 12.566.133.286.275.581.426.883.435.869.95 1.787 1.577 2.699 2.5 3.641 8.344 7.42 14.552 7.42 12.223 0 18.238-9.466 19.703-17.58.542-3.005-3.512-3.863-4.181-1.158M89.7 45c-.356 0-.664-.02-.909-.045-.781-.08-1.345-.73-1.26-1.452.086-.725.787-1.246 1.57-1.168.471.048 1.694.102 2.848-.43.752-.345 1.177-.797 1.402-1.117.429-.609 1.31-.781 1.969-.383.658.398.844 1.214.414 1.823-.418.593-1.193 1.427-2.518 2.037-1.282.59-2.566.735-3.516.735M81.75 43.5c-.07 1.18-1.379 2.092-2.924 2.04-1.547-.054-2.744-1.053-2.673-2.232.069-1.179 1.378-2.091 2.923-2.039 1.546.053 2.743 1.052 2.674 2.231"/>
    </g>
</svg>
